# xmcd CD database file
#
# Track frame offsets:
#	150
#	11835
#	36964
#	58973
#	81141
#	95435
#	122861
#	143370
#	158311
#	185337
#	210846
#
# Disc length: 3267 seconds
#
# Revision: 0
# Processed by: cddbd v1.5.1PL2 Copyright (c) Steve Scherf et al.
# Submitted via: CDex 1.51
#
DISCID=850cc10b
DTITLE=Motif - Expansion
DYEAR=2005
DGENRE=Jazz
TTITLE0=Circling In
TTITLE1=Rock Solid
TTITLE2=Amient
TTITLE3=Kauto
TTITLE4=Hum
TTITLE5=Bee
TTITLE6=Rubb
TTITLE7=Ju Ba 2
TTITLE8=Carla/Fly
TTITLE9=Full Circle
TTITLE10=Rock Solid (Live)
EXTD=YEAR: 2005
EXTT0=
EXTT1=
EXTT2=
EXTT3=
EXTT4=
EXTT5=
EXTT6=
EXTT7=
EXTT8=
EXTT9=
EXTT10=
PLAYORDER=
